<?xml version="1.0" encoding="UTF-8"?>
<svg id="Capa_1" xmlns="http://www.w3.org/2000/svg" xmlns:xlink="http://www.w3.org/1999/xlink" version="1.1" viewBox="0 0 595.28 841.89">
  <!-- Generator: Adobe Illustrator 29.6.1, SVG Export Plug-In . SVG Version: 2.1.1 Build 9)  -->
  <defs>
    <style>
      .st0 {
        mask: url(#mask);
      }

      .st1 {
        fill: #010101;
      }

      .st2 {
        stroke: #113423;
      }

      .st3 {
        fill: #fff;
      }

      .st4 {
        fill: #f2ece1;
      }
    </style>
    <mask id="mask" x="106.6" y="452.15" width="357.42" height="104.85" maskUnits="userSpaceOnUse">
      <g id="path-2-outside-1_0_11" data-name="path-2-outside-1_0_1">
        <rect class="st3" x="106.6" y="452.15" width="357.42" height="104.85"/>
        <path class="st1" d="M144.72,549.05v-80.83h-31.26v-8.13h71.93v8.13h-31.26v80.83h-9.4ZM262.41,549.05l-10.68-23.77h-49.56l-10.68,23.77h-9.79l40.67-88.96h9.28l40.67,88.96h-9.91ZM205.6,517.66h42.7l-21.35-47.78-21.35,47.78ZM348.45,534.56v-29.99h9.02v33.93c-8.39,7.5-20.33,11.31-32.66,11.31-27.07,0-46.89-19.19-46.89-45.24s19.83-45.24,47.02-45.24c13.47,0,25.16,4.32,33.04,12.84l-5.85,5.97c-7.5-7.37-16.39-10.42-26.81-10.42-21.99,0-38.13,15.63-38.13,36.85s16.14,36.85,38,36.85c8.51,0,16.39-1.91,23.26-6.86ZM419.93,549.81c-22.75,0-36.6-13.22-36.6-38.76v-50.96h9.4v50.58c0,21.1,9.91,30.75,27.2,30.75s27.32-9.66,27.32-30.75v-50.58h9.15v50.96c0,25.54-13.73,38.76-36.47,38.76Z"/>
      </g>
    </mask>
  </defs>
  <g id="path-2-outside-1_0_1">
    <rect class="st3" x="106.22" y="451.77" width="357.43" height="104.85"/>
    <path class="st1" d="M144.34,548.67v-80.83h-31.26v-8.13h71.93v8.13h-31.26v80.83h-9.4ZM262.03,548.67l-10.68-23.76h-49.56l-10.68,23.76h-9.79l40.67-88.96h9.28l40.67,88.96h-9.91ZM205.22,517.28h42.7l-21.35-47.78-21.35,47.78ZM348.07,534.18v-29.99h9.02v33.93c-8.39,7.5-20.33,11.31-32.66,11.31-27.07,0-46.89-19.19-46.89-45.24s19.83-45.24,47.02-45.24c13.47,0,25.16,4.32,33.04,12.84l-5.85,5.97c-7.5-7.37-16.39-10.42-26.81-10.42-21.99,0-38.13,15.63-38.13,36.85s16.14,36.85,38,36.85c8.51,0,16.39-1.91,23.26-6.86ZM419.55,549.43c-22.75,0-36.6-13.22-36.6-38.76v-50.96h9.4v50.58c0,21.1,9.91,30.75,27.2,30.75s27.32-9.66,27.32-30.75v-50.58h9.15v50.96c0,25.54-13.73,38.76-36.47,38.76Z"/>
  </g>
  <rect class="st2" x="72.49" y="139.24" width="450.3" height="450.3" rx="19" ry="19"/>
  <g class="st0">
    <path class="st4" d="M144.72,549.05h-6.35v6.35h6.35v-6.35ZM144.72,468.22h6.35v-6.35h-6.35v6.35ZM113.46,468.22h-6.35v6.35h6.35v-6.35ZM113.46,460.09v-6.35h-6.35v6.35h6.35ZM185.39,460.09h6.35v-6.35h-6.35v6.35ZM185.39,468.22v6.35h6.35v-6.35h-6.35ZM154.13,468.22v-6.35h-6.35v6.35h6.35ZM154.13,549.05v6.35h6.35v-6.35h-6.35ZM144.72,549.05h6.35v-80.83h-12.71v80.83h6.35ZM144.72,468.22v-6.35h-31.26v12.71h31.26v-6.35ZM113.46,468.22h6.35v-8.13h-12.71v8.13h6.35ZM113.46,460.09v6.35h71.93v-12.71h-71.93v6.35ZM185.39,460.09h-6.35v8.13h12.71v-8.13h-6.35ZM185.39,468.22v-6.35h-31.26v12.71h31.26v-6.35ZM154.13,468.22h-6.35v80.83h12.71v-80.83h-6.35ZM154.13,549.05v-6.35h-9.4v12.71h9.4v-6.35ZM262.41,549.05l-5.8,2.6,1.69,3.75h4.11v-6.35ZM251.73,525.28l5.8-2.6-1.69-3.75h-4.11v6.35ZM202.17,525.28v-6.35h-4.11l-1.68,3.75,5.8,2.6ZM191.5,549.05v6.35h4.11l1.68-3.75-5.8-2.6ZM181.71,549.05l-5.78-2.64-4.11,9h9.89v-6.35ZM222.38,460.09v-6.35h-4.08l-1.7,3.71,5.78,2.64ZM231.66,460.09l5.78-2.64-1.7-3.71h-4.08v6.35ZM272.32,549.05v6.35h9.89l-4.11-9-5.78,2.64ZM205.6,517.66l-5.8-2.59-4,8.95h9.8v-6.35ZM248.3,517.66v6.35h9.8l-4-8.95-5.8,2.59ZM226.95,469.87l5.8-2.59-5.8-12.98-5.8,12.98,5.8,2.59ZM262.41,549.05l5.8-2.6-10.68-23.76-5.8,2.6-5.8,2.6,10.68,23.77,5.8-2.6ZM251.73,525.28v-6.35h-49.56v12.71h49.56v-6.35ZM202.17,525.28l-5.8-2.6-10.68,23.76,5.8,2.6,5.8,2.6,10.68-23.77-5.8-2.6ZM191.5,549.05v-6.35h-9.79v12.71h9.79v-6.35ZM181.71,549.05l5.78,2.64,40.67-88.96-5.78-2.64-5.78-2.64-40.67,88.96,5.78,2.64ZM222.38,460.09v6.35h9.28v-12.71h-9.28v6.35ZM231.66,460.09l-5.78,2.64,40.67,88.96,5.78-2.64,5.78-2.64-40.67-88.96-5.78,2.64ZM272.32,549.05v-6.35h-9.91v12.71h9.91v-6.35ZM205.6,517.66v6.35h42.7v-12.71h-42.7v6.35ZM248.3,517.66l5.8-2.59-21.35-47.78-5.8,2.59-5.8,2.59,21.35,47.78,5.8-2.59ZM226.95,469.87l-5.8-2.59-21.35,47.78,5.8,2.59,5.8,2.59,21.35-47.78-5.8-2.59ZM348.45,534.56l3.72,5.15,2.63-1.9v-3.25h-6.35ZM348.45,504.57v-6.35h-6.35v6.35h6.35ZM357.47,504.57h6.35v-6.35h-6.35v6.35ZM357.47,538.5l4.23,4.74,2.12-1.89v-2.84h-6.35ZM357.98,472.16l4.54,4.44,4.23-4.32-4.11-4.44-4.66,4.32ZM352.14,478.14l-4.46,4.53,4.54,4.47,4.45-4.55-4.54-4.44ZM348.45,534.56h6.35v-29.99h-12.71v29.99h6.35ZM348.45,504.57v6.35h9.02v-12.71h-9.02v6.35ZM357.47,504.57h-6.35v33.93h12.71v-33.93h-6.35ZM357.47,538.5l-4.24-4.74c-6.98,6.24-17.3,9.69-28.43,9.69v12.71c13.53,0,27.1-4.17,36.89-12.93l-4.23-4.74ZM324.81,549.81v-6.35c-23.77,0-40.54-16.55-40.54-38.89h-12.71c0,29.77,22.88,51.6,53.25,51.6v-6.35ZM277.92,504.57h6.35c0-22.32,16.76-38.89,40.67-38.89v-12.71c-30.48,0-53.37,21.82-53.37,51.6h6.35ZM324.94,459.33v6.35c12.15,0,21.97,3.88,28.38,10.8l4.66-4.32,4.66-4.32c-9.35-10.11-22.91-14.87-37.71-14.87v6.35ZM357.98,472.16l-4.54-4.44-5.85,5.97,4.54,4.44,4.54,4.44,5.85-5.97-4.54-4.44ZM352.14,478.14l4.45-4.53c-8.86-8.71-19.45-12.24-31.27-12.24v12.71c9.02,0,16.22,2.57,22.36,8.6l4.46-4.53ZM325.32,467.71v-6.35c-25.29,0-44.48,18.28-44.48,43.21h12.71c0-17.52,13.09-30.5,31.77-30.5v-6.35ZM287.2,504.57h-6.35c0,24.78,19.16,43.21,44.35,43.21v-12.71c-18.52,0-31.64-13.08-31.64-30.5h-6.35ZM325.19,541.42v6.35c9.49,0,18.77-2.14,26.98-8.07l-3.72-5.15-3.72-5.15c-5.52,3.99-12,5.66-19.54,5.66v6.35ZM383.33,460.09v-6.35h-6.35v6.35h6.35ZM392.73,460.09h6.35v-6.35h-6.35v6.35ZM447.25,460.09v-6.35h-6.35v6.35h6.35ZM456.4,460.09h6.35v-6.35h-6.35v6.35ZM419.93,549.81v-6.35c-10.15,0-17.47-2.92-22.27-7.87-4.83-4.97-7.98-12.87-7.98-24.53h-12.71c0,13.88,3.78,25.36,11.56,33.39,7.81,8.05,18.79,11.73,31.39,11.73v-6.35ZM383.33,511.05h6.35v-50.96h-12.71v50.96h6.35ZM383.33,460.09v6.35h9.4v-12.71h-9.4v6.35ZM392.73,460.09h-6.35v50.58h12.71v-50.58h-6.35ZM392.73,510.67h-6.35c0,11.44,2.68,20.93,8.79,27.59,6.2,6.75,14.95,9.52,24.76,9.52v-12.71c-7.47,0-12.32-2.06-15.4-5.41-3.17-3.45-5.44-9.33-5.44-18.99h-6.35ZM419.93,541.42v6.35c9.86,0,18.64-2.76,24.86-9.52,6.13-6.66,8.81-16.16,8.81-27.59h-12.71c0,9.66-2.28,15.54-5.45,18.98-3.09,3.35-7.97,5.42-15.52,5.42v6.35ZM447.25,510.67h6.35v-50.58h-12.71v50.58h6.35ZM447.25,460.09v6.35h9.15v-12.71h-9.15v6.35ZM456.4,460.09h-6.35v50.96h12.71v-50.96h-6.35ZM456.4,511.05h-6.35c0,11.68-3.12,19.58-7.92,24.55-4.77,4.94-12.05,7.86-22.2,7.86v12.71c12.6,0,23.56-3.69,31.34-11.74,7.75-8.03,11.49-19.51,11.49-33.37h-6.35Z"/>
  </g>
  <path class="st4" d="M144.34,548.67v-80.83h-31.26v-8.13h71.93v8.13h-31.26v80.83h-9.4ZM262.03,548.67l-10.68-23.76h-49.56l-10.68,23.76h-9.79l40.67-88.96h9.28l40.67,88.96h-9.91ZM205.22,517.28h42.7l-21.35-47.78-21.35,47.78ZM348.07,534.18v-29.99h9.02v33.93c-8.39,7.5-20.33,11.31-32.66,11.31-27.07,0-46.89-19.19-46.89-45.24s19.83-45.24,47.02-45.24c13.47,0,25.16,4.32,33.04,12.84l-5.85,5.97c-7.5-7.37-16.39-10.42-26.81-10.42-21.99,0-38.13,15.63-38.13,36.85s16.14,36.85,38,36.85c8.51,0,16.39-1.91,23.26-6.86ZM419.55,549.43c-22.75,0-36.6-13.22-36.6-38.76v-50.96h9.4v50.58c0,21.1,9.91,30.75,27.2,30.75s27.32-9.66,27.32-30.75v-50.58h9.15v50.96c0,25.54-13.73,38.76-36.47,38.76Z"/>
  <path class="st4" d="M388.87,179.88c2.64-5.31,6.59-2.21,8.24,0,4.61,13.29,30.47,47.05,42.83,62.28,7.91,11.96-2.75,11.62-9.06,9.96l-20.59-7.47c-2.64,2.66,24.71,33.77,38.71,48.99,11.86,11.96,0,13.29-7.41,12.46-5.27,0-18.67-5.54-24.71-8.3-.66,4.65,24.98,29.62,37.89,41.52,5.27,5.98,1.1,9.13-1.65,9.96-10.54,3.99-37.34-7.75-49.42-14.12l1.65,50.65-22.24.83.82-50.65c-11.86,9.97-35.14,13.01-45.3,13.29-10.54-.66-6.59-6.92-3.29-9.96,13.18-10.63,28-32.11,33.77-41.52-6.59,4.65-22.51,7.47-29.65,8.3-8.56-.66-6.31-6.92-4.12-9.96,17.13-11.29,34.59-39.58,41.18-52.31-5.27,5.31-18.67,8.3-24.71,9.13-9.88,0-8.51-5.54-6.59-8.3,11.2-9.3,33.77-47.05,43.65-64.77Z"/>
  <path class="st4" d="M141.14,388.22h239.9l-22.26-28.24c-9.23,5.32-21.98,3.32-27.2,1.66-23.74-8.64-10.99-28.51-1.65-37.37l-38.75-49.83c-10.55-17.94-21.43-8.03-25.56-.83l-31.33,39.03c-6.6,8.64-12.64,3.6-14.84,0-7.91-17.27-20.33-6.09-25.56,1.66l-55.23,69.76c-1.98,2.66.82,3.88,2.47,4.15Z"/>
  <circle class="st4" cx="218.21" cy="214.28" r="54.01"/>
  <path class="st4" d="M407.25,433.5c4.46,0,7.94,3.27,7.94,7.15s-3.48,7.15-7.94,7.15-7.94-3.27-7.94-7.15,3.48-7.15,7.94-7.15Z"/>
  <circle class="st4" cx="433.46" cy="440.65" r="7.15"/>
  <path class="st4" d="M389.48,386.68c-1.92-.25-33.8.52-49.5.94-3.83,0-19.16,1.04-26.35,1.56-4.47.5-15.17,1.04-19.96,1.25-8.94,0-25.55,2.29-32.73,3.43-7.66,1.25-12.77,2.81-14.37,3.43-6.39,2-2.66,4.58,0,5.62,0,.5,14.37,3.33,21.56,4.68,4.47,1,3.99,2.91,3.19,3.75-.64,1.25-10.38,3.02-15.17,3.74-4.47,1.25-34.86,3.43-49.5,4.37-1.28.25-17.56.73-25.55.94-5.11-.25-5.32,1.35-4.79,2.19.64,1.5,19.43,2.5,28.74,2.81l23.95.94h52.69c7.66.25,25.02-1.35,32.73-2.19,10.86-1.25,19.96-4.06,23.15-5.31,5.11-2.5,2.13-6.03,0-7.49-7.03-3.25-25.28-6.56-33.53-7.8-3.19-.75-2.93-2.19-2.4-2.81.64-1.75,10.38-3.22,15.17-3.74,6.39-1.25,43.11-3.85,60.68-4.99,3.19-.5,36.99-1.25,53.49-1.56,4.47-1.25,1.86-2.39,0-2.81-2.55-1-28.74-1.04-41.52-.94Z"/>
</svg>